solid glue bracket
   facet normal 0.000000e+000 0.000000e+000 -1.000000e+000
      outer loop
         vertex 3.000000e+001 3.500000e+001 0.000000e+000
         vertex 3.000000e+001 6.938894e-015 0.000000e+000
         vertex 0.000000e+000 3.500000e+001 0.000000e+000
      endloop
   endfacet
   facet normal 0.000000e+000 0.000000e+000 -1.000000e+000
      outer loop
         vertex 0.000000e+000 3.500000e+001 0.000000e+000
         vertex 3.000000e+001 6.938894e-015 0.000000e+000
         vertex 0.000000e+000 6.938894e-015 0.000000e+000
      endloop
   endfacet
   facet normal 0.000000e+000 1.000000e+000 0.000000e+000
      outer loop
         vertex 3.000000e+001 3.500000e+001 5.000000e+000
         vertex 3.000000e+001 3.500000e+001 0.000000e+000
         vertex 0.000000e+000 3.500000e+001 5.000000e+000
      endloop
   endfacet
   facet normal 0.000000e+000 1.000000e+000 0.000000e+000
      outer loop
         vertex 0.000000e+000 3.500000e+001 5.000000e+000
         vertex 3.000000e+001 3.500000e+001 0.000000e+000
         vertex 0.000000e+000 3.500000e+001 0.000000e+000
      endloop
   endfacet
   facet normal 0.000000e+000 2.891206e-017 1.000000e+000
      outer loop
         vertex 3.000000e+001 5.000000e+000 5.000000e+000
         vertex 3.000000e+001 3.500000e+001 5.000000e+000
         vertex 6.938894e-015 5.000000e+000 5.000000e+000
      endloop
   endfacet
   facet normal 0.000000e+000 2.891206e-017 1.000000e+000
      outer loop
         vertex 6.938894e-015 5.000000e+000 5.000000e+000
         vertex 3.000000e+001 3.500000e+001 5.000000e+000
         vertex 6.938894e-015 3.500000e+001 5.000000e+000
      endloop
   endfacet
   facet normal 0.000000e+000 1.000000e+000 2.023844e-016
      outer loop
         vertex 3.000000e+001 5.000000e+000 3.500000e+001
         vertex 3.000000e+001 5.000000e+000 5.000000e+000
         vertex 6.938894e-015 5.000000e+000 3.500000e+001
      endloop
   endfacet
   facet normal 0.000000e+000 1.000000e+000 2.023844e-016
      outer loop
         vertex 6.938894e-015 5.000000e+000 3.500000e+001
         vertex 3.000000e+001 5.000000e+000 5.000000e+000
         vertex 6.938894e-015 5.000000e+000 5.000000e+000
      endloop
   endfacet
   facet normal 0.000000e+000 1.387779e-015 1.000000e+000
      outer loop
         vertex 3.000000e+001 2.652630e-015 3.500000e+001
         vertex 3.000000e+001 5.000000e+000 3.500000e+001
         vertex 0.000000e+000 2.652630e-015 3.500000e+001
      endloop
   endfacet
   facet normal 0.000000e+000 1.387779e-015 1.000000e+000
      outer loop
         vertex 0.000000e+000 2.652630e-015 3.500000e+001
         vertex 3.000000e+001 5.000000e+000 3.500000e+001
         vertex 0.000000e+000 5.000000e+000 3.500000e+001
      endloop
   endfacet
   facet normal 0.000000e+000 -1.000000e+000 -1.224647e-016
      outer loop
         vertex 3.000000e+001 6.938894e-015 0.000000e+000
         vertex 3.000000e+001 2.652630e-015 3.500000e+001
         vertex 0.000000e+000 6.938894e-015 0.000000e+000
      endloop
   endfacet
   facet normal 0.000000e+000 -1.000000e+000 -1.224647e-016
      outer loop
         vertex 0.000000e+000 6.938894e-015 0.000000e+000
         vertex 3.000000e+001 2.652630e-015 3.500000e+001
         vertex 0.000000e+000 2.652630e-015 3.500000e+001
      endloop
   endfacet
   facet normal 1.000000e+000 0.000000e+000 0.000000e+000
      outer loop
         vertex 3.000000e+001 5.000000e+000 3.500000e+001
         vertex 3.000000e+001 2.652630e-015 3.500000e+001
         vertex 3.000000e+001 5.000000e+000 5.000000e+000
      endloop
   endfacet
   facet normal 1.000000e+000 0.000000e+000 0.000000e+000
      outer loop
         vertex 3.000000e+001 5.000000e+000 5.000000e+000
         vertex 3.000000e+001 2.652630e-015 3.500000e+001
         vertex 3.000000e+001 6.938894e-015 0.000000e+000
      endloop
   endfacet
   facet normal 1.000000e+000 0.000000e+000 0.000000e+000
      outer loop
         vertex 3.000000e+001 5.000000e+000 5.000000e+000
         vertex 3.000000e+001 6.938894e-015 0.000000e+000
         vertex 3.000000e+001 3.500000e+001 5.000000e+000
      endloop
   endfacet
   facet normal 1.000000e+000 0.000000e+000 0.000000e+000
      outer loop
         vertex 3.000000e+001 3.500000e+001 5.000000e+000
         vertex 3.000000e+001 6.938894e-015 0.000000e+000
         vertex 3.000000e+001 3.500000e+001 0.000000e+000
      endloop
   endfacet
   facet normal -1.000000e+000 0.000000e+000 0.000000e+000
      outer loop
         vertex 0.000000e+000 3.500000e+001 5.000000e+000
         vertex 0.000000e+000 3.500000e+001 0.000000e+000
         vertex 0.000000e+000 5.000000e+000 5.000000e+000
      endloop
   endfacet
   facet normal -1.000000e+000 0.000000e+000 0.000000e+000
      outer loop
         vertex 0.000000e+000 5.000000e+000 5.000000e+000
         vertex 0.000000e+000 3.500000e+001 0.000000e+000
         vertex 0.000000e+000 6.938894e-015 0.000000e+000
      endloop
   endfacet
   facet normal -1.000000e+000 0.000000e+000 0.000000e+000
      outer loop
         vertex 0.000000e+000 5.000000e+000 5.000000e+000
         vertex 0.000000e+000 6.938894e-015 0.000000e+000
         vertex 0.000000e+000 5.000000e+000 3.500000e+001
      endloop
   endfacet
   facet normal -1.000000e+000 0.000000e+000 0.000000e+000
      outer loop
         vertex 0.000000e+000 5.000000e+000 3.500000e+001
         vertex 0.000000e+000 6.938894e-015 0.000000e+000
         vertex 0.000000e+000 2.652630e-015 3.500000e+001
      endloop
   endfacet
endsolid